<svg version="1.1" id="Layer_1" xmlns="http://www.w3.org/2000/svg" xmlns:xlink="http://www.w3.org/1999/xlink" x="0px" y="0px"
	 width="100%" viewBox="0 0 200 200" enable-background="new 0 0 200 200" xml:space="preserve">
<path fill="#030302" opacity="1.000000" stroke="none" 
	d="
M120.000000,201.000000 
	C80.024696,201.000000 40.549400,201.000000 1.037050,201.000000 
	C1.037050,134.399734 1.037050,67.799454 1.037050,1.099581 
	C67.558464,1.099581 134.117126,1.099581 200.837891,1.099581 
	C200.837891,67.666351 200.837891,134.333145 200.837891,201.000000 
	C174.133072,201.000000 147.316528,201.000000 120.000000,201.000000 
M120.565529,74.865868 
	C117.513008,76.319611 114.829361,75.901604 112.377029,73.484238 
	C109.921600,71.063835 107.427498,71.376587 104.222443,72.645111 
	C100.912956,73.954964 97.030251,73.766907 93.428802,74.405983 
	C90.967690,74.842712 87.977631,74.879196 86.251564,76.323006 
	C82.985611,79.054886 80.099976,79.519249 76.240608,77.894554 
	C71.716347,75.989944 68.168953,78.317352 68.053589,83.199890 
	C67.860855,91.357246 67.963020,99.522583 68.010590,107.684151 
	C68.032967,111.522316 69.740547,114.231773 73.840706,114.350006 
	C78.157509,114.474480 80.139626,111.847572 80.216682,107.733116 
	C80.300880,103.237289 80.091064,98.729988 80.347633,94.247055 
	C80.422646,92.936478 81.652519,91.692001 82.353065,90.417229 
	C82.899826,91.633492 83.868546,92.832779 83.918266,94.069031 
	C84.105530,98.725426 83.976326,103.393944 83.998131,108.057762 
	C84.026054,114.030098 86.137650,116.973557 90.333733,116.952515 
	C94.527344,116.931488 96.382767,114.192390 96.413620,107.914635 
	C96.434898,103.583954 96.316269,99.249382 96.472588,94.924225 
	C96.530373,93.325516 97.195602,91.748749 97.583786,90.161980 
	C98.124138,90.166481 98.664497,90.170990 99.204849,90.175499 
	C99.540985,91.595726 100.132683,93.009796 100.167068,94.437294 
	C100.287361,99.431480 100.135262,104.431976 100.239433,109.426888 
	C100.338860,114.194313 102.673645,116.920143 106.429520,116.956337 
	C110.283401,116.993469 112.475945,114.462044 112.605614,109.506729 
	C112.723206,105.012436 112.455391,100.502380 112.716331,96.020172 
	C112.826973,94.119591 113.854218,92.272385 114.464882,90.400917 
	C115.154579,92.349724 116.292404,94.265114 116.440697,96.254280 
	C116.749435,100.395508 116.502159,104.576080 116.542679,108.739914 
	C116.594200,114.034004 118.620934,116.813118 122.447479,116.951347 
	C126.561211,117.099945 128.817993,114.270020 128.844894,108.705040 
	C128.890823,99.210838 128.892715,89.716080 128.845261,80.221893 
	C128.813263,73.822906 127.882607,73.160835 120.565529,74.865868 
M138.405792,47.009853 
	C138.061569,48.842293 136.777786,51.499519 137.536469,52.363785 
	C140.748978,56.023380 144.494095,59.240650 148.269592,62.345936 
	C148.696091,62.696720 150.577637,61.375473 151.727921,60.728977 
	C154.129211,59.379410 156.492691,57.962589 159.080154,56.451672 
	C161.738785,61.174164 163.979843,65.431740 166.540756,69.487335 
	C167.102219,70.376526 168.802399,70.546700 169.978180,71.047989 
	C169.979843,69.858482 170.391052,68.461212 169.911453,67.515846 
	C167.959641,63.668503 165.726471,59.964340 163.612625,56.198639 
	C160.580704,50.797447 160.589767,50.799709 155.027832,54.064533 
	C152.887833,55.320702 150.729294,56.545303 148.433685,57.868145 
	C146.032623,55.336430 143.670975,52.846260 141.247650,50.291050 
	C143.063156,47.032650 144.958160,44.076321 146.352020,40.900066 
	C146.873001,39.712898 146.774918,37.173702 146.022903,36.681576 
	C140.680511,33.185482 135.095367,30.060329 129.297546,26.646269 
	C126.709709,31.030857 124.456436,34.848583 122.093231,38.852581 
	C118.649559,37.817162 115.391151,36.837448 111.842613,35.770500 
	C111.842613,31.016733 111.842613,26.585413 111.842613,21.657829 
	C105.303413,21.657829 99.163681,21.492016 93.050621,21.821404 
	C92.034332,21.876163 90.459625,24.012873 90.311646,25.319828 
	C89.923424,28.748625 90.180603,32.250500 90.180603,35.575867 
	C80.509262,39.037773 80.509872,39.037430 75.929611,30.893353 
	C75.603889,30.314194 75.228378,29.761196 74.929901,29.168882 
	C73.850182,27.026272 72.642830,26.258375 70.251244,27.820004 
	C65.943573,30.632765 61.459377,33.186752 56.961624,35.692120 
	C54.572025,37.023190 54.639069,38.475773 55.919453,40.568211 
	C57.725357,43.519459 59.306339,46.608337 60.889221,49.468079 
	C58.367538,52.125156 55.997112,54.622856 53.580849,57.168858 
	C50.868919,55.570576 48.179825,54.226357 45.763626,52.500164 
	C42.818363,50.395996 40.914280,50.563446 39.223835,54.048405 
	C37.197701,58.225399 34.615719,62.131618 32.558899,66.295601 
	C31.969345,67.489143 32.364391,69.169037 32.307976,70.625923 
	C33.521091,69.835930 35.165886,69.319160 35.869843,68.206917 
	C38.417229,64.182106 40.648552,59.957249 43.055542,55.708382 
	C46.379257,57.677860 49.157650,59.531059 52.133698,60.977619 
	C53.202991,61.497360 55.171253,61.587791 56.012138,60.941349 
	C66.356850,52.988705 66.620110,51.486862 60.369965,40.301605 
	C60.151283,39.910259 60.160095,39.391800 60.023422,38.746231 
	C62.447315,37.246803 64.814758,35.749290 67.216591,34.309132 
	C68.612312,33.472240 70.063232,32.727406 71.525764,31.921049 
	C72.056839,32.595795 72.529633,33.078598 72.865486,33.642906 
	C74.646202,36.634918 75.754250,41.148937 78.325432,42.241894 
	C81.043442,43.397270 85.143784,41.301331 88.639915,40.623646 
	C88.803062,40.592018 88.962814,40.503307 89.123589,40.504730 
	C93.590271,40.544113 94.715439,38.069588 94.286232,34.053955 
	C94.010330,31.472546 94.234459,28.837688 94.234459,26.200497 
	C99.195847,26.200497 103.593575,26.200497 107.908569,26.200497 
	C108.176651,30.633265 107.012512,35.806431 109.076378,38.561066 
	C111.093048,41.252728 116.325920,41.824326 120.284851,42.710804 
	C128.497009,44.549664 126.247093,34.987263 131.495117,32.641083 
	C134.886353,34.647594 138.782791,36.953022 142.712158,39.277931 
	C141.224411,41.999557 140.029724,44.185066 138.405792,47.009853 
M140.047592,153.545319 
	C140.894699,155.101517 141.741806,156.657715 142.687180,158.394440 
	C138.454483,160.879257 134.644455,163.115952 130.674179,165.446716 
	C128.939987,162.416260 127.524345,159.785324 125.963074,157.243866 
	C121.408775,149.830322 116.750877,158.281235 111.995232,157.290146 
	C109.492538,156.768570 107.955688,158.884766 108.139282,161.842514 
	C108.341652,165.102692 108.185455,168.385101 108.185455,171.652710 
	C103.288368,171.652710 98.896263,171.652710 94.449219,171.652710 
	C94.248718,167.217010 95.555420,161.895859 93.469849,159.297501 
	C91.238152,156.517090 85.897995,155.788483 81.757774,155.077423 
	C73.678703,153.689911 76.242912,163.319916 70.896088,165.483688 
	C67.500282,163.416016 63.607609,161.045792 59.684452,158.657013 
	C61.604927,155.202347 63.426453,152.391861 64.723740,149.357269 
	C65.226151,148.182037 65.093178,146.023041 64.313721,145.120911 
	C55.484867,134.902832 55.436268,134.945053 43.822033,141.427689 
	C43.692261,141.500122 43.545879,141.542816 42.983810,141.772171 
	C40.492275,137.373688 38.060642,132.861115 35.360928,128.515091 
	C34.867847,127.721329 33.282322,127.606178 32.201088,127.177773 
	C32.076366,128.208160 31.497416,129.482773 31.899210,130.230087 
	C34.947105,135.898819 38.187065,141.464294 41.584763,147.445038 
	C45.974865,144.916275 49.903027,142.653610 52.931892,140.908951 
	C56.001518,143.436874 58.551674,145.537003 61.168194,147.691788 
	C59.237514,151.162155 57.310921,154.270386 55.793282,157.566879 
	C55.331322,158.570343 55.528015,160.813522 56.219635,161.262924 
	C61.592434,164.753922 67.160172,167.944885 73.001678,171.427841 
	C75.694992,166.915710 78.047386,162.974731 80.427063,158.988037 
	C83.840393,160.004318 86.954414,160.931473 90.183220,161.892807 
	C90.183220,165.681259 89.908699,169.205826 90.330917,172.644836 
	C90.480324,173.861755 92.270142,175.746292 93.412010,175.822983 
	C98.552635,176.168304 103.741730,176.161423 108.883804,175.827087 
	C110.010857,175.753830 111.799980,173.909393 111.932617,172.728775 
	C112.336205,169.136383 112.078896,165.469757 112.078896,161.679443 
	C115.659019,160.650848 118.924232,159.712723 122.224068,158.764648 
	C124.071602,162.054077 125.773170,164.897415 127.287170,167.837357 
	C128.528763,170.248306 129.858902,170.910263 132.368881,169.266266 
	C136.396881,166.627945 140.560715,164.169693 144.814606,161.913330 
	C147.592392,160.439941 147.780884,158.811768 146.269104,156.317169 
	C144.493210,153.386780 142.947708,150.316788 141.093002,146.924576 
	C143.756577,144.584030 146.240021,142.401779 148.933701,140.034790 
	C151.169418,141.348801 153.871719,142.673660 156.272079,144.414795 
	C159.242569,146.569489 161.155991,146.301651 162.857376,142.886124 
	C164.929428,138.726471 167.489136,134.809158 169.546936,130.643295 
	C170.130356,129.462204 169.698380,127.779533 169.732071,126.326889 
	C168.518417,127.129356 166.880356,127.661919 166.167496,128.782867 
	C163.621536,132.786301 161.389618,136.989456 159.146927,140.927338 
	C154.912247,138.802429 150.935806,135.100296 147.651443,135.636581 
	C144.332352,136.178528 141.845642,141.089859 138.729568,143.780502 
	C134.461716,147.465683 138.698517,149.914780 140.047592,153.545319 
M178.997711,85.384521 
	C170.288330,79.597610 161.540649,81.049736 155.227310,88.952026 
	C154.044266,90.432800 151.634476,91.571075 149.711594,91.701706 
	C144.296753,92.069580 138.840637,91.830170 133.174377,91.830170 
	C133.174377,96.743782 133.174377,101.134911 133.174377,106.004684 
	C139.002213,106.004684 144.626053,105.794815 150.217621,106.127464 
	C151.987488,106.232750 154.170486,107.374489 155.306946,108.750237 
	C159.974182,114.400261 166.278549,117.036957 172.383301,115.383530 
	C185.919739,111.717285 189.609970,96.551636 178.997711,85.384521 
M52.693851,91.828239 
	C48.806293,92.376236 46.289310,91.071854 43.674873,87.722008 
	C36.427238,78.435699 22.241615,80.301994 17.283638,91.182037 
	C20.424500,91.182037 23.370213,91.067589 26.303383,91.210503 
	C30.118294,91.396378 34.974953,98.284172 33.285221,101.119102 
	C31.048731,104.871346 28.651815,108.466568 23.234358,107.310577 
	C21.584505,106.958534 19.796059,107.256004 17.651489,107.256004 
	C23.331108,116.930885 35.436150,119.261650 42.033672,111.305305 
	C46.473438,105.951134 51.067127,105.815857 56.639481,105.993050 
	C59.075996,106.070526 61.517025,106.006065 63.880188,106.006065 
	C63.880188,100.968781 63.880188,96.564178 63.880188,91.828209 
	C60.250217,91.828209 56.946186,91.828209 52.693851,91.828239 
M135.464722,61.031059 
	C120.391106,47.207123 103.038155,43.268101 83.777275,50.074207 
	C69.364754,55.167084 59.580910,65.487358 54.057384,79.728958 
	C53.643211,80.796852 54.279984,82.272362 54.428211,83.558388 
	C55.470905,82.816803 56.785172,82.269699 57.489674,81.285919 
	C58.436047,79.964394 58.861469,78.280853 59.596657,76.795357 
	C68.791306,58.216938 89.220078,47.993416 109.338272,51.926277 
	C126.045120,55.192261 137.055176,65.330284 143.933136,80.540009 
	C144.630783,82.082787 146.174362,83.243034 147.325378,84.580803 
	C147.349686,82.678368 148.098801,80.348236 147.272415,78.947777 
	C143.757843,72.991730 139.776535,67.311104 135.464722,61.031059 
M105.003036,150.573853 
	C111.330490,148.707047 118.051620,147.649567 123.902687,144.803406 
	C135.748505,139.041183 143.683807,129.336716 148.002167,116.850517 
	C148.361298,115.812134 147.561493,114.372932 147.300140,113.119957 
	C146.378342,113.845970 145.182343,114.400536 144.596909,115.336853 
	C143.640045,116.867218 143.133392,118.671379 142.345947,120.316544 
	C131.581467,142.806213 105.278053,152.693222 82.479042,142.688187 
	C71.704353,137.959854 63.893787,130.104034 58.900543,119.404366 
	C58.029110,117.537033 57.586525,113.975609 53.968781,116.628227 
	C58.462601,136.320038 81.297142,151.789474 105.003036,150.573853 
M112.634354,128.144562 
	C117.961853,128.139999 123.291473,128.226791 128.616211,128.103027 
	C133.171906,127.997154 135.656860,125.445816 135.932495,120.949516 
	C136.110733,118.041855 135.965988,115.114395 135.965988,110.574890 
	C132.092789,114.541992 129.710831,118.044098 126.422523,120.087967 
	C122.050468,122.805428 117.909027,120.405800 114.384346,117.028549 
	C110.646797,121.902092 105.832123,121.470482 100.810638,119.955467 
	C101.819855,126.882080 103.543800,128.111496 112.634354,128.144562 
z"/>
<path fill="#F9F9F9" opacity="1.000000" stroke="none" 
	d="
M120.935783,74.697098 
	C127.882607,73.160835 128.813263,73.822906 128.845261,80.221893 
	C128.892715,89.716080 128.890823,99.210838 128.844894,108.705040 
	C128.817993,114.270020 126.561211,117.099945 122.447479,116.951347 
	C118.620934,116.813118 116.594200,114.034004 116.542679,108.739914 
	C116.502159,104.576080 116.749435,100.395508 116.440697,96.254280 
	C116.292404,94.265114 115.154579,92.349724 114.464882,90.400917 
	C113.854218,92.272385 112.826973,94.119591 112.716331,96.020172 
	C112.455391,100.502380 112.723206,105.012436 112.605614,109.506729 
	C112.475945,114.462044 110.283401,116.993469 106.429520,116.956337 
	C102.673645,116.920143 100.338860,114.194313 100.239433,109.426888 
	C100.135262,104.431976 100.287361,99.431480 100.167068,94.437294 
	C100.132683,93.009796 99.540985,91.595726 99.204849,90.175499 
	C98.664497,90.170990 98.124138,90.166481 97.583786,90.161980 
	C97.195602,91.748749 96.530373,93.325516 96.472588,94.924225 
	C96.316269,99.249382 96.434898,103.583954 96.413620,107.914635 
	C96.382767,114.192390 94.527344,116.931488 90.333733,116.952515 
	C86.137650,116.973557 84.026054,114.030098 83.998131,108.057762 
	C83.976326,103.393944 84.105530,98.725426 83.918266,94.069031 
	C83.868546,92.832779 82.899826,91.633492 82.353065,90.417229 
	C81.652519,91.692001 80.422646,92.936478 80.347633,94.247055 
	C80.091064,98.729988 80.300880,103.237289 80.216682,107.733116 
	C80.139626,111.847572 78.157509,114.474480 73.840706,114.350006 
	C69.740547,114.231773 68.032967,111.522316 68.010590,107.684151 
	C67.963020,99.522583 67.860855,91.357246 68.053589,83.199890 
	C68.168953,78.317352 71.716347,75.989944 76.240608,77.894554 
	C80.099976,79.519249 82.985611,79.054886 86.251564,76.323006 
	C87.977631,74.879196 90.967690,74.842712 93.428802,74.405983 
	C97.030251,73.766907 100.912956,73.954964 104.222443,72.645111 
	C107.427498,71.376587 109.921600,71.063835 112.377029,73.484238 
	C114.829361,75.901604 117.513008,76.319611 120.935783,74.697098 
z"/>
<path fill="#EDEDED" opacity="1.000000" stroke="none" 
	d="
M138.620422,46.690216 
	C140.029724,44.185066 141.224411,41.999557 142.712158,39.277931 
	C138.782791,36.953022 134.886353,34.647594 131.495117,32.641083 
	C126.247093,34.987263 128.497009,44.549664 120.284851,42.710804 
	C116.325920,41.824326 111.093048,41.252728 109.076378,38.561066 
	C107.012512,35.806431 108.176651,30.633265 107.908569,26.200497 
	C103.593575,26.200497 99.195847,26.200497 94.234459,26.200497 
	C94.234459,28.837688 94.010330,31.472546 94.286232,34.053955 
	C94.715439,38.069588 93.590271,40.544113 89.123589,40.504730 
	C88.962814,40.503307 88.803062,40.592018 88.639915,40.623646 
	C85.143784,41.301331 81.043442,43.397270 78.325432,42.241894 
	C75.754250,41.148937 74.646202,36.634918 72.865486,33.642906 
	C72.529633,33.078598 72.056839,32.595795 71.525764,31.921049 
	C70.063232,32.727406 68.612312,33.472240 67.216591,34.309132 
	C64.814758,35.749290 62.447315,37.246803 60.023422,38.746231 
	C60.160095,39.391800 60.151283,39.910259 60.369965,40.301605 
	C66.620110,51.486862 66.356850,52.988705 56.012138,60.941349 
	C55.171253,61.587791 53.202991,61.497360 52.133698,60.977619 
	C49.157650,59.531059 46.379257,57.677860 43.055542,55.708382 
	C40.648552,59.957249 38.417229,64.182106 35.869843,68.206917 
	C35.165886,69.319160 33.521091,69.835930 32.307976,70.625923 
	C32.364391,69.169037 31.969345,67.489143 32.558899,66.295601 
	C34.615719,62.131618 37.197701,58.225399 39.223835,54.048405 
	C40.914280,50.563446 42.818363,50.395996 45.763626,52.500164 
	C48.179825,54.226357 50.868919,55.570576 53.580849,57.168858 
	C55.997112,54.622856 58.367538,52.125156 60.889221,49.468079 
	C59.306339,46.608337 57.725357,43.519459 55.919453,40.568211 
	C54.639069,38.475773 54.572025,37.023190 56.961624,35.692120 
	C61.459377,33.186752 65.943573,30.632765 70.251244,27.820004 
	C72.642830,26.258375 73.850182,27.026272 74.929901,29.168882 
	C75.228378,29.761196 75.603889,30.314194 75.929611,30.893353 
	C80.509872,39.037430 80.509262,39.037773 90.180603,35.575867 
	C90.180603,32.250500 89.923424,28.748625 90.311646,25.319828 
	C90.459625,24.012873 92.034332,21.876163 93.050621,21.821404 
	C99.163681,21.492016 105.303413,21.657829 111.842613,21.657829 
	C111.842613,26.585413 111.842613,31.016733 111.842613,35.770500 
	C115.391151,36.837448 118.649559,37.817162 122.093231,38.852581 
	C124.456436,34.848583 126.709709,31.030857 129.297546,26.646269 
	C135.095367,30.060329 140.680511,33.185482 146.022903,36.681576 
	C146.774918,37.173702 146.873001,39.712898 146.352020,40.900066 
	C144.958160,44.076321 143.063156,47.032650 141.247650,50.291050 
	C143.670975,52.846260 146.032623,55.336430 148.433685,57.868145 
	C150.729294,56.545303 152.887833,55.320702 155.027832,54.064533 
	C160.589767,50.799709 160.580704,50.797447 163.612625,56.198639 
	C165.726471,59.964340 167.959641,63.668503 169.911453,67.515846 
	C170.391052,68.461212 169.979843,69.858482 169.978180,71.047989 
	C168.802399,70.546700 167.102219,70.376526 166.540756,69.487335 
	C163.979843,65.431740 161.738785,61.174164 159.080154,56.451672 
	C156.492691,57.962589 154.129211,59.379410 151.727921,60.728977 
	C150.577637,61.375473 148.696091,62.696720 148.269592,62.345936 
	C144.494095,59.240650 140.748978,56.023380 137.536469,52.363785 
	C136.777786,51.499519 138.061569,48.842293 138.620422,46.690216 
z"/>
<path fill="#EDEDED" opacity="1.000000" stroke="none" 
	d="
M139.894318,153.195114 
	C138.698517,149.914780 134.461716,147.465683 138.729568,143.780502 
	C141.845642,141.089859 144.332352,136.178528 147.651443,135.636581 
	C150.935806,135.100296 154.912247,138.802429 159.146927,140.927338 
	C161.389618,136.989456 163.621536,132.786301 166.167496,128.782867 
	C166.880356,127.661919 168.518417,127.129356 169.732071,126.326889 
	C169.698380,127.779533 170.130356,129.462204 169.546936,130.643295 
	C167.489136,134.809158 164.929428,138.726471 162.857376,142.886124 
	C161.155991,146.301651 159.242569,146.569489 156.272079,144.414795 
	C153.871719,142.673660 151.169418,141.348801 148.933701,140.034790 
	C146.240021,142.401779 143.756577,144.584030 141.093002,146.924576 
	C142.947708,150.316788 144.493210,153.386780 146.269104,156.317169 
	C147.780884,158.811768 147.592392,160.439941 144.814606,161.913330 
	C140.560715,164.169693 136.396881,166.627945 132.368881,169.266266 
	C129.858902,170.910263 128.528763,170.248306 127.287170,167.837357 
	C125.773170,164.897415 124.071602,162.054077 122.224068,158.764648 
	C118.924232,159.712723 115.659019,160.650848 112.078896,161.679443 
	C112.078896,165.469757 112.336205,169.136383 111.932617,172.728775 
	C111.799980,173.909393 110.010857,175.753830 108.883804,175.827087 
	C103.741730,176.161423 98.552635,176.168304 93.412010,175.822983 
	C92.270142,175.746292 90.480324,173.861755 90.330917,172.644836 
	C89.908699,169.205826 90.183220,165.681259 90.183220,161.892807 
	C86.954414,160.931473 83.840393,160.004318 80.427063,158.988037 
	C78.047386,162.974731 75.694992,166.915710 73.001678,171.427841 
	C67.160172,167.944885 61.592434,164.753922 56.219635,161.262924 
	C55.528015,160.813522 55.331322,158.570343 55.793282,157.566879 
	C57.310921,154.270386 59.237514,151.162155 61.168194,147.691788 
	C58.551674,145.537003 56.001518,143.436874 52.931892,140.908951 
	C49.903027,142.653610 45.974865,144.916275 41.584763,147.445038 
	C38.187065,141.464294 34.947105,135.898819 31.899210,130.230087 
	C31.497416,129.482773 32.076366,128.208160 32.201088,127.177773 
	C33.282322,127.606178 34.867847,127.721329 35.360928,128.515091 
	C38.060642,132.861115 40.492275,137.373688 42.983810,141.772171 
	C43.545879,141.542816 43.692261,141.500122 43.822033,141.427689 
	C55.436268,134.945053 55.484867,134.902832 64.313721,145.120911 
	C65.093178,146.023041 65.226151,148.182037 64.723740,149.357269 
	C63.426453,152.391861 61.604927,155.202347 59.684452,158.657013 
	C63.607609,161.045792 67.500282,163.416016 70.896088,165.483688 
	C76.242912,163.319916 73.678703,153.689911 81.757774,155.077423 
	C85.897995,155.788483 91.238152,156.517090 93.469849,159.297501 
	C95.555420,161.895859 94.248718,167.217010 94.449219,171.652710 
	C98.896263,171.652710 103.288368,171.652710 108.185455,171.652710 
	C108.185455,168.385101 108.341652,165.102692 108.139282,161.842514 
	C107.955688,158.884766 109.492538,156.768570 111.995232,157.290146 
	C116.750877,158.281235 121.408775,149.830322 125.963074,157.243866 
	C127.524345,159.785324 128.939987,162.416260 130.674179,165.446716 
	C134.644455,163.115952 138.454483,160.879257 142.687180,158.394440 
	C141.741806,156.657715 140.894699,155.101517 139.894318,153.195114 
z"/>
<path fill="#F8C533" opacity="1.000000" stroke="none" 
	d="
M179.282013,85.624115 
	C189.609970,96.551636 185.919739,111.717285 172.383301,115.383530 
	C166.278549,117.036957 159.974182,114.400261 155.306946,108.750237 
	C154.170486,107.374489 151.987488,106.232750 150.217621,106.127464 
	C144.626053,105.794815 139.002213,106.004684 133.174377,106.004684 
	C133.174377,101.134911 133.174377,96.743782 133.174377,91.830170 
	C138.840637,91.830170 144.296753,92.069580 149.711594,91.701706 
	C151.634476,91.571075 154.044266,90.432800 155.227310,88.952026 
	C161.540649,81.049736 170.288330,79.597610 179.282013,85.624115 
M171.307739,106.731804 
	C172.002274,106.281837 172.647446,105.712753 173.399292,105.401070 
	C178.658432,103.220787 177.159882,98.370407 176.211334,95.162788 
	C175.547318,92.917313 171.698151,90.724304 168.945679,90.191635 
	C164.681137,89.366356 160.859253,95.267204 161.288315,100.973679 
	C161.549683,104.449722 166.387283,107.592682 171.307739,106.731804 
M154.181107,95.815285 
	C150.925537,95.889671 150.092377,97.787369 151.344070,100.356247 
	C151.738586,101.165924 154.159424,101.910866 154.908371,101.456978 
	C157.429916,99.928841 157.387360,97.860909 154.181107,95.815285 
z"/>
<path fill="#F8C433" opacity="1.000000" stroke="none" 
	d="
M53.168007,91.828224 
	C56.946186,91.828209 60.250217,91.828209 63.880188,91.828209 
	C63.880188,96.564178 63.880188,100.968781 63.880188,106.006065 
	C61.517025,106.006065 59.075996,106.070526 56.639481,105.993050 
	C51.067127,105.815857 46.473438,105.951134 42.033672,111.305305 
	C35.436150,119.261650 23.331108,116.930885 17.651489,107.256004 
	C19.796059,107.256004 21.584505,106.958534 23.234358,107.310577 
	C28.651815,108.466568 31.048731,104.871346 33.285221,101.119102 
	C34.974953,98.284172 30.118294,91.396378 26.303383,91.210503 
	C23.370213,91.067589 20.424500,91.182037 17.283638,91.182037 
	C22.241615,80.301994 36.427238,78.435699 43.674873,87.722008 
	C46.289310,91.071854 48.806293,92.376236 53.168007,91.828224 
M48.351635,95.765709 
	C45.431103,95.813805 44.367275,97.594559 45.360680,99.976501 
	C45.747501,100.904015 48.428471,101.919235 49.185478,101.456512 
	C51.685028,99.928635 51.635330,97.795448 48.351635,95.765709 
z"/>
<path fill="#EBBA30" opacity="1.000000" stroke="none" 
	d="
M135.715179,61.280479 
	C139.776535,67.311104 143.757843,72.991730 147.272415,78.947777 
	C148.098801,80.348236 147.349686,82.678368 147.325378,84.580803 
	C146.174362,83.243034 144.630783,82.082787 143.933136,80.540009 
	C137.055176,65.330284 126.045120,55.192261 109.338272,51.926277 
	C89.220078,47.993416 68.791306,58.216938 59.596657,76.795357 
	C58.861469,78.280853 58.436047,79.964394 57.489674,81.285919 
	C56.785172,82.269699 55.470905,82.816803 54.428207,83.558380 
	C54.279984,82.272362 53.643211,80.796852 54.057384,79.728958 
	C59.580910,65.487358 69.364754,55.167084 83.777275,50.074207 
	C103.038155,43.268101 120.391106,47.207123 135.715179,61.280479 
z"/>
<path fill="#EBBA30" opacity="1.000000" stroke="none" 
	d="
M104.558662,150.643768 
	C81.297142,151.789474 58.462601,136.320038 53.968781,116.628227 
	C57.586525,113.975609 58.029110,117.537033 58.900543,119.404366 
	C63.893787,130.104034 71.704353,137.959854 82.479042,142.688187 
	C105.278053,152.693222 131.581467,142.806213 142.345947,120.316544 
	C143.133392,118.671379 143.640045,116.867218 144.596909,115.336853 
	C145.182343,114.400536 146.378342,113.845970 147.300140,113.119957 
	C147.561493,114.372932 148.361298,115.812134 148.002167,116.850517 
	C143.683807,129.336716 135.748505,139.041183 123.902687,144.803406 
	C118.051620,147.649567 111.330490,148.707047 104.558662,150.643768 
z"/>
<path fill="#F6F6F6" opacity="1.000000" stroke="none" 
	d="
M112.158699,128.144516 
	C103.543800,128.111496 101.819855,126.882080 100.810638,119.955467 
	C105.832123,121.470482 110.646797,121.902092 114.384346,117.028549 
	C117.909027,120.405800 122.050468,122.805428 126.422523,120.087967 
	C129.710831,118.044098 132.092789,114.541992 135.965988,110.574890 
	C135.965988,115.114395 136.110733,118.041855 135.932495,120.949516 
	C135.656860,125.445816 133.171906,127.997154 128.616211,128.103027 
	C123.291473,128.226791 117.961853,128.139999 112.158699,128.144516 
z"/>
<path fill="#0F0C03" opacity="1.000000" stroke="none" 
	d="
M170.980316,106.894791 
	C166.387283,107.592682 161.549683,104.449722 161.288315,100.973679 
	C160.859253,95.267204 164.681137,89.366356 168.945679,90.191635 
	C171.698151,90.724304 175.547318,92.917313 176.211334,95.162788 
	C177.159882,98.370407 178.658432,103.220787 173.399292,105.401070 
	C172.647446,105.712753 172.002274,106.281837 170.980316,106.894791 
z"/>
<path fill="#130F04" opacity="1.000000" stroke="none" 
	d="
M154.567566,95.917389 
	C157.387360,97.860909 157.429916,99.928841 154.908371,101.456978 
	C154.159424,101.910866 151.738586,101.165924 151.344070,100.356247 
	C150.092377,97.787369 150.925537,95.889671 154.567566,95.917389 
z"/>
<path fill="#1A1505" opacity="1.000000" stroke="none" 
	d="
M48.747883,95.871017 
	C51.635330,97.795448 51.685028,99.928635 49.185478,101.456512 
	C48.428471,101.919235 45.747501,100.904015 45.360680,99.976501 
	C44.367275,97.594559 45.431103,95.813805 48.747883,95.871017 
z"/>
</svg>