<svg version="1.1" id="Layer_1" xmlns="http://www.w3.org/2000/svg" xmlns:xlink="http://www.w3.org/1999/xlink" x="0px" y="0px"
	 width="100%" viewBox="0 0 200 200" enable-background="new 0 0 200 200" xml:space="preserve">
<path fill="#020201" opacity="1.000000" stroke="none" 
	d="
M116.000000,201.000000 
	C77.357201,201.000000 39.214397,201.000000 1.035799,201.000000 
	C1.035799,134.398911 1.035799,67.797783 1.035799,1.098330 
	C67.559296,1.098330 134.118790,1.098330 200.839142,1.098330 
	C200.839142,67.666351 200.839142,134.333145 200.839142,201.000000 
	C172.798065,201.000000 144.649033,201.000000 116.000000,201.000000 
M104.106682,100.000267 
	C89.901993,101.229546 80.470146,94.195045 73.594360,82.184525 
	C73.575745,84.398750 73.947472,86.224335 74.861183,87.718475 
	C81.765671,99.009041 91.907143,103.656013 105.686852,102.256844 
	C117.863228,100.455101 129.780334,89.350983 128.155228,79.227386 
	C123.694771,91.167343 116.187141,97.894958 104.106682,100.000267 
M63.740131,47.576813 
	C62.267658,50.296619 60.795189,53.016426 59.322720,55.736233 
	C59.913536,56.015461 60.504356,56.294689 61.095173,56.573917 
	C62.778660,53.737114 64.462151,50.900314 66.853600,48.076408 
	C74.202103,52.044247 74.426826,51.978741 79.947037,44.239784 
	C78.869934,42.243176 77.786636,40.235073 76.493195,37.837437 
	C78.935509,36.446362 81.145576,35.187565 83.326988,33.945095 
	C88.271835,41.215160 88.271835,41.215160 96.928413,37.624210 
	C97.066093,35.262417 97.206367,32.856285 97.345413,30.471203 
	C100.093887,30.471203 102.368279,30.471203 105.207176,30.471203 
	C103.817192,36.175255 106.023224,38.857021 111.665337,40.164181 
	C117.272209,41.463177 115.999687,35.574532 119.434822,34.410309 
	C121.322906,35.574871 123.478691,36.904549 125.650215,38.243938 
	C124.315834,40.720764 123.226891,42.742004 122.257339,44.541653 
	C124.666702,47.087723 126.891533,49.438789 129.062057,51.732460 
	C131.365387,50.507767 133.408798,49.421276 135.503296,48.307613 
	C137.457932,51.305027 139.352493,54.210320 141.247055,57.115612 
	C141.833664,56.770252 142.420288,56.424892 143.006897,56.079533 
	C140.909668,52.400078 138.812439,48.720623 136.600769,44.840382 
	C133.867111,46.288059 131.579147,47.499699 130.247330,48.205002 
	C128.364182,46.614307 126.889160,45.368362 125.392891,44.104462 
	C126.515625,41.974636 127.658928,39.805794 129.028214,37.208241 
	C125.240097,34.993717 121.735703,32.945065 118.016708,30.770956 
	C116.302513,33.344009 114.792473,35.610630 113.320000,37.820869 
	C111.332268,37.172298 109.768250,36.661980 108.061981,36.105247 
	C107.857407,33.449501 107.658249,30.864040 107.447594,28.129414 
	C103.092369,28.129414 99.138176,28.129414 94.856689,28.129414 
	C94.330383,32.194225 96.237099,38.044586 88.518578,37.192947 
	C87.291763,35.254734 85.897423,33.051842 84.542641,30.911457 
	C73.910019,35.072220 73.511124,35.790176 76.778801,44.607559 
	C75.498718,45.795040 74.184898,47.013813 72.739571,48.354591 
	C71.002831,47.376339 69.510674,46.118748 67.820366,45.735851 
	C66.759476,45.495533 65.401009,46.568836 63.740131,47.576813 
M111.846222,82.619690 
	C115.874794,84.109543 117.571106,82.047363 117.687462,78.411888 
	C117.868202,72.764000 117.813400,67.104172 117.691566,61.453003 
	C117.636436,58.895546 116.594444,57.562893 113.516907,58.275635 
	C111.678688,58.701359 109.573624,57.876781 107.579971,57.759560 
	C105.887451,57.660046 104.124573,57.493717 102.494392,57.837933 
	C97.890793,58.809998 93.346710,60.061317 88.758110,61.110443 
	C88.189980,61.240341 87.468842,60.876911 86.862091,60.633625 
	C82.768715,58.992352 81.273155,61.053440 81.157806,64.756287 
	C81.038773,68.577202 80.723267,72.467209 81.296539,76.203827 
	C81.598473,78.171890 83.391907,81.173668 84.901611,81.432114 
	C88.083748,81.976860 88.647224,79.022179 88.626297,76.319923 
	C88.604919,73.558273 88.621567,70.796326 88.621567,68.034508 
	C89.244293,68.030663 89.867027,68.026817 90.489754,68.022980 
	C90.625862,69.378952 90.585480,70.781914 90.931549,72.081993 
	C91.924400,75.811859 88.066978,82.578720 94.440651,82.709862 
	C101.110657,82.847099 97.011948,76.002640 98.090103,72.379326 
	C98.501732,70.995979 98.471443,69.481133 98.642548,68.026207 
	C99.310471,68.047813 99.978386,68.069412 100.646309,68.091019 
	C100.646309,71.057030 100.623871,74.023247 100.651093,76.989006 
	C100.703812,82.733475 101.340630,83.309654 107.800591,83.482193 
	C105.607872,84.320679 103.415154,85.159157 99.923401,86.494385 
	C102.341850,87.780418 104.156265,89.349564 106.172050,89.676292 
	C109.237289,90.173103 112.443489,89.867973 115.587418,89.796989 
	C121.618919,89.660797 123.631073,85.972336 120.690414,80.267197 
	C119.497459,81.653984 118.514923,83.215767 117.150047,84.293228 
	C114.517403,86.371498 111.672066,85.579468 111.846222,82.619690 
M122.433403,111.928986 
	C124.535347,110.686432 126.637283,109.443878 128.980179,108.058884 
	C127.576988,105.308556 126.393066,102.987991 125.711563,101.652206 
	C127.098122,99.629181 128.206970,98.011353 129.261139,96.473274 
	C130.679626,97.217575 131.710968,97.755089 132.738892,98.299080 
	C133.887314,98.906845 135.032639,99.520485 136.133041,100.106918 
	C141.174408,93.922173 142.350189,91.224472 141.121811,87.974731 
	C139.167831,91.128143 137.369202,94.030853 135.581894,96.915306 
	C127.886299,92.881599 127.886299,92.881599 122.254532,100.612823 
	C123.316925,102.632805 124.385582,104.664688 125.674042,107.114502 
	C123.360451,108.463844 121.151146,109.752357 118.968613,111.025261 
	C113.950500,104.032761 113.950500,104.032761 105.281891,107.530098 
	C105.136322,109.867638 104.986115,112.279633 104.844063,114.560631 
	C102.040947,114.560631 99.642502,114.560631 96.977516,114.560631 
	C96.977516,111.920990 96.977516,109.618042 96.977516,107.405510 
	C88.198570,104.582771 88.198570,104.582771 83.182076,111.256416 
	C81.013855,109.969200 78.821136,108.667442 76.593483,107.344948 
	C77.929657,104.713585 79.024780,102.556938 79.826515,100.978073 
	C77.501198,98.332985 75.538963,96.100914 73.447639,93.722000 
	C71.060371,94.966850 68.895523,96.095726 66.591415,97.297211 
	C64.593246,94.306206 62.685036,91.449844 60.776821,88.593491 
	C60.228046,88.927017 59.679276,89.260551 59.130501,89.594086 
	C61.134029,93.165443 63.137562,96.736801 65.378716,100.731735 
	C68.083481,99.343758 70.382675,98.163895 72.947380,96.847794 
	C74.409401,98.223717 75.810303,99.542130 77.067085,100.724907 
	C75.670654,103.586929 74.545319,105.893341 73.316200,108.412445 
	C77.201248,110.616806 80.612335,112.552246 84.265793,114.625206 
	C85.909744,112.113998 87.331512,109.942192 88.870209,107.591766 
	C90.876556,108.202827 92.737839,108.769707 94.457420,109.293427 
	C94.629074,112.141251 94.775093,114.563675 94.911461,116.826080 
	C99.399323,116.826080 103.433861,116.826080 107.409401,116.826080 
	C108.240974,108.671272 108.240974,108.671272 113.741623,107.811852 
	C114.991554,109.828094 116.287231,111.918121 117.811897,114.377533 
	C119.223877,113.612007 120.491837,112.924553 122.433403,111.928986 
M97.626915,139.702820 
	C96.947365,137.306839 96.119659,134.941055 95.623985,132.507614 
	C94.930038,129.100830 93.191338,128.608093 90.204819,130.172882 
	C90.204819,138.243729 90.122162,146.228210 90.300117,154.206863 
	C90.324837,155.315109 91.634964,156.394684 92.350037,157.487534 
	C92.864784,157.242737 93.379539,156.997955 93.894287,156.753174 
	C93.894287,151.700790 93.894287,146.648422 93.894287,141.596039 
	C95.479950,143.930252 96.079842,146.458267 97.062714,148.827377 
	C97.460503,149.786209 98.755424,151.064621 99.531174,150.993195 
	C100.424576,150.910889 101.549133,149.636871 101.947884,148.632187 
	C102.865234,146.320877 103.403580,143.859131 104.095734,141.458420 
	C104.414589,141.541290 104.733452,141.624146 105.052307,141.707016 
	C105.052307,146.679535 105.052307,151.652054 105.052307,156.624588 
	C105.452286,156.916275 105.852272,157.207962 106.252251,157.499664 
	C107.050606,156.467712 108.516464,155.451569 108.541313,154.401321 
	C108.733597,146.275940 108.647316,138.143982 108.647316,130.142731 
	C105.495155,128.478821 103.950104,129.559174 103.182556,132.337494 
	C102.094666,136.275421 101.006157,140.213181 99.917915,144.151016 
	C99.615349,144.143158 99.312782,144.135315 99.010216,144.127457 
	C98.618027,142.915085 98.225838,141.702728 97.626915,139.702820 
M132.614059,67.958229 
	C128.513123,68.260475 124.412170,68.562714 120.210823,68.872360 
	C120.210823,71.435127 120.210823,73.867760 120.210823,76.538231 
	C121.213127,76.634583 122.009529,76.763718 122.808151,76.779297 
	C127.648575,76.873756 132.191513,76.288811 136.365097,80.663673 
	C140.168716,84.650734 147.146622,82.391144 149.991638,77.462494 
	C152.536484,73.053871 151.338089,67.525368 147.202942,64.597610 
	C142.723175,61.425846 137.799805,62.368080 132.614059,67.958229 
M55.617290,63.644245 
	C54.056175,64.862671 52.495056,66.081100 50.933941,67.299522 
	C55.535908,67.909828 59.531460,68.017677 61.312923,74.258934 
	C58.557411,75.760262 55.544186,77.402008 52.658447,78.974289 
	C55.955055,83.147903 61.953865,84.159691 65.819298,79.898811 
	C68.472488,76.974197 71.204071,76.586937 74.586670,76.758133 
	C75.993736,76.829353 77.416710,76.586365 78.861542,76.484200 
	C78.861542,73.667900 78.861542,71.359108 78.861542,68.518089 
	C76.738426,68.518089 74.741653,68.737854 72.818939,68.454720 
	C70.987976,68.185097 68.662727,67.920715 67.554893,66.726364 
	C64.356728,63.278446 60.778244,62.117901 55.617290,63.644245 
M122.247673,157.057068 
	C128.933884,156.706329 126.269989,151.543793 126.858513,148.070740 
	C128.004532,141.307816 123.184761,141.068939 118.567085,140.902893 
	C118.567085,138.165543 118.567085,135.764877 118.567085,133.364197 
	C118.955284,133.054321 119.343475,132.744446 119.731674,132.434570 
	C120.761833,133.470993 121.806770,134.493286 122.816483,135.549286 
	C123.401894,136.161530 123.825935,137.135910 124.518425,137.371368 
	C125.060577,137.555725 126.544846,136.656906 126.519844,136.575882 
	C125.815437,134.292847 125.593163,130.797058 124.040909,130.029327 
	C118.247520,127.163994 114.062126,130.154114 114.043900,136.481110 
	C114.040543,137.645325 114.064484,138.809921 114.043617,139.973755 
	C113.988770,143.032059 115.459557,144.592834 118.535385,144.686981 
	C119.822739,144.726395 121.106148,144.894516 122.816475,145.040390 
	C122.816475,147.239594 123.036499,149.235611 122.725525,151.145157 
	C122.565193,152.129730 121.460442,152.960510 120.782417,153.860764 
	C119.984863,153.085724 119.202515,152.294235 118.385941,151.539795 
	C117.342537,150.575775 116.271523,149.641632 114.567329,148.117813 
	C113.820511,156.456741 114.315712,156.976013 122.247673,157.057068 
M78.096657,140.124557 
	C78.096657,137.843689 78.096657,135.562805 78.096657,132.890778 
	C80.171501,132.890778 81.821411,133.070282 83.403999,132.821487 
	C84.310448,132.678970 85.107460,131.840347 85.953735,131.315125 
	C85.211777,130.678070 84.503838,129.544907 83.721886,129.491318 
	C80.622093,129.278809 77.499138,129.403961 73.933022,129.403961 
	C73.933022,138.159103 73.831001,146.417099 74.072800,154.665024 
	C74.100456,155.608612 76.051628,156.495789 77.110924,157.409119 
	C77.503616,157.054688 77.896301,156.700256 78.288986,156.345825 
	C78.288986,152.610992 78.288986,148.876160 78.288986,145.940704 
	C80.704300,144.937698 82.481499,144.199692 84.258698,143.461685 
	C84.047073,143.093811 83.835457,142.725937 83.623833,142.358063 
	C81.805870,141.904312 79.987907,141.450562 78.096657,140.124557 
M88.011086,45.374317 
	C80.517921,49.417953 74.701065,54.803566 73.228531,64.059776 
	C83.799683,44.455166 98.876511,39.997089 119.129684,50.830723 
	C113.347145,42.912079 99.803337,40.766331 88.011086,45.374317 
M122.465477,51.665150 
	C121.489449,50.997738 120.513420,50.330322 119.537392,49.662910 
	C119.354134,49.959106 119.170883,50.255302 118.987625,50.551498 
	C122.077240,55.125916 125.166855,59.700329 128.256470,64.274742 
	C128.877655,59.073944 125.894547,55.661888 122.465477,51.665150 
z"/>
<path fill="#F4F4F4" opacity="1.000000" stroke="none" 
	d="
M106.989273,82.835495 
	C101.340630,83.309654 100.703812,82.733475 100.651093,76.989006 
	C100.623871,74.023247 100.646309,71.057030 100.646309,68.091019 
	C99.978386,68.069412 99.310471,68.047813 98.642548,68.026207 
	C98.471443,69.481133 98.501732,70.995979 98.090103,72.379326 
	C97.011948,76.002640 101.110657,82.847099 94.440651,82.709862 
	C88.066978,82.578720 91.924400,75.811859 90.931549,72.081993 
	C90.585480,70.781914 90.625862,69.378952 90.489754,68.022980 
	C89.867027,68.026817 89.244293,68.030663 88.621567,68.034508 
	C88.621567,70.796326 88.604919,73.558273 88.626297,76.319923 
	C88.647224,79.022179 88.083748,81.976860 84.901611,81.432114 
	C83.391907,81.173668 81.598473,78.171890 81.296539,76.203827 
	C80.723267,72.467209 81.038773,68.577202 81.157806,64.756287 
	C81.273155,61.053440 82.768715,58.992352 86.862091,60.633625 
	C87.468842,60.876911 88.189980,61.240341 88.758110,61.110443 
	C93.346710,60.061317 97.890793,58.809998 102.494392,57.837933 
	C104.124573,57.493717 105.887451,57.660046 107.579971,57.759560 
	C109.573624,57.876781 111.678688,58.701359 113.516907,58.275635 
	C116.594444,57.562893 117.636436,58.895546 117.691566,61.453003 
	C117.813400,67.104172 117.868202,72.764000 117.687462,78.411888 
	C117.571106,82.047363 115.874794,84.109543 111.408638,82.753021 
	C110.971054,82.886345 111.044044,82.929199 111.167221,82.523865 
	C110.623947,77.400185 109.957497,72.681839 109.291046,67.963501 
	C109.032692,67.997108 108.774338,68.030716 108.515984,68.064323 
	C107.995697,73.020508 107.475410,77.976700 106.996262,82.919968 
	C107.037392,82.907051 106.989273,82.835495 106.989273,82.835495 
z"/>
<path fill="#E3E3E3" opacity="1.000000" stroke="none" 
	d="
M122.096603,112.083038 
	C120.491837,112.924553 119.223877,113.612007 117.811897,114.377533 
	C116.287231,111.918121 114.991554,109.828094 113.741623,107.811852 
	C108.240974,108.671272 108.240974,108.671272 107.409401,116.826080 
	C103.433861,116.826080 99.399323,116.826080 94.911461,116.826080 
	C94.775093,114.563675 94.629074,112.141251 94.457420,109.293427 
	C92.737839,108.769707 90.876556,108.202827 88.870209,107.591766 
	C87.331512,109.942192 85.909744,112.113998 84.265793,114.625206 
	C80.612335,112.552246 77.201248,110.616806 73.316200,108.412445 
	C74.545319,105.893341 75.670654,103.586929 77.067085,100.724907 
	C75.810303,99.542130 74.409401,98.223717 72.947380,96.847794 
	C70.382675,98.163895 68.083481,99.343758 65.378716,100.731735 
	C63.137562,96.736801 61.134029,93.165443 59.130501,89.594086 
	C59.679276,89.260551 60.228046,88.927017 60.776821,88.593491 
	C62.685036,91.449844 64.593246,94.306206 66.591415,97.297211 
	C68.895523,96.095726 71.060371,94.966850 73.447639,93.722000 
	C75.538963,96.100914 77.501198,98.332985 79.826515,100.978073 
	C79.024780,102.556938 77.929657,104.713585 76.593483,107.344948 
	C78.821136,108.667442 81.013855,109.969200 83.182076,111.256416 
	C88.198570,104.582771 88.198570,104.582771 96.977516,107.405510 
	C96.977516,109.618042 96.977516,111.920990 96.977516,114.560631 
	C99.642502,114.560631 102.040947,114.560631 104.844063,114.560631 
	C104.986115,112.279633 105.136322,109.867638 105.281891,107.530098 
	C113.950500,104.032761 113.950500,104.032761 118.968613,111.025261 
	C121.151146,109.752357 123.360451,108.463844 125.674042,107.114502 
	C124.385582,104.664688 123.316925,102.632805 122.254532,100.612823 
	C127.886299,92.881599 127.886299,92.881599 135.581894,96.915306 
	C137.369202,94.030853 139.167831,91.128143 141.121811,87.974731 
	C142.350189,91.224472 141.174408,93.922173 136.133041,100.106918 
	C135.032639,99.520485 133.887314,98.906845 132.738892,98.299080 
	C131.710968,97.755089 130.679626,97.217575 129.261139,96.473274 
	C128.206970,98.011353 127.098122,99.629181 125.711563,101.652206 
	C126.393066,102.987991 127.576988,105.308556 128.980179,108.058884 
	C126.637283,109.443878 124.535347,110.686432 122.096603,112.083038 
z"/>
<path fill="#E1E1E1" opacity="1.000000" stroke="none" 
	d="
M64.176056,47.052780 
	C65.401009,46.568836 66.759476,45.495533 67.820366,45.735851 
	C69.510674,46.118748 71.002831,47.376339 72.739571,48.354591 
	C74.184898,47.013813 75.498718,45.795040 76.778801,44.607559 
	C73.511124,35.790176 73.910019,35.072220 84.542641,30.911457 
	C85.897423,33.051842 87.291763,35.254734 88.518578,37.192947 
	C96.237099,38.044586 94.330383,32.194225 94.856689,28.129414 
	C99.138176,28.129414 103.092369,28.129414 107.447594,28.129414 
	C107.658249,30.864040 107.857407,33.449501 108.061981,36.105247 
	C109.768250,36.661980 111.332268,37.172298 113.320000,37.820869 
	C114.792473,35.610630 116.302513,33.344009 118.016708,30.770956 
	C121.735703,32.945065 125.240097,34.993717 129.028214,37.208241 
	C127.658928,39.805794 126.515625,41.974636 125.392891,44.104462 
	C126.889160,45.368362 128.364182,46.614307 130.247330,48.205002 
	C131.579147,47.499699 133.867111,46.288059 136.600769,44.840382 
	C138.812439,48.720623 140.909668,52.400078 143.006897,56.079533 
	C142.420288,56.424892 141.833664,56.770252 141.247055,57.115612 
	C139.352493,54.210320 137.457932,51.305027 135.503296,48.307613 
	C133.408798,49.421276 131.365387,50.507767 129.062057,51.732460 
	C126.891533,49.438789 124.666702,47.087723 122.257339,44.541653 
	C123.226891,42.742004 124.315834,40.720764 125.650215,38.243938 
	C123.478691,36.904549 121.322906,35.574871 119.434822,34.410309 
	C115.999687,35.574532 117.272209,41.463177 111.665337,40.164181 
	C106.023224,38.857021 103.817192,36.175255 105.207176,30.471203 
	C102.368279,30.471203 100.093887,30.471203 97.345413,30.471203 
	C97.206367,32.856285 97.066093,35.262417 96.928413,37.624210 
	C88.271835,41.215160 88.271835,41.215160 83.326988,33.945095 
	C81.145576,35.187565 78.935509,36.446362 76.493195,37.837437 
	C77.786636,40.235073 78.869934,42.243176 79.947037,44.239784 
	C74.426826,51.978741 74.202103,52.044247 66.242302,47.966820 
	C65.146019,47.589077 64.661041,47.320927 64.176056,47.052780 
z"/>
<path fill="#DFDFDF" opacity="1.000000" stroke="none" 
	d="
M97.730286,140.096588 
	C98.225838,141.702728 98.618027,142.915085 99.010216,144.127457 
	C99.312782,144.135315 99.615349,144.143158 99.917915,144.151016 
	C101.006157,140.213181 102.094666,136.275421 103.182556,132.337494 
	C103.950104,129.559174 105.495155,128.478821 108.647316,130.142731 
	C108.647316,138.143982 108.733597,146.275940 108.541313,154.401321 
	C108.516464,155.451569 107.050606,156.467712 106.252251,157.499664 
	C105.852272,157.207962 105.452286,156.916275 105.052307,156.624588 
	C105.052307,151.652054 105.052307,146.679535 105.052307,141.707016 
	C104.733452,141.624146 104.414589,141.541290 104.095734,141.458420 
	C103.403580,143.859131 102.865234,146.320877 101.947884,148.632187 
	C101.549133,149.636871 100.424576,150.910889 99.531174,150.993195 
	C98.755424,151.064621 97.460503,149.786209 97.062714,148.827377 
	C96.079842,146.458267 95.479950,143.930252 93.894287,141.596039 
	C93.894287,146.648422 93.894287,151.700790 93.894287,156.753174 
	C93.379539,156.997955 92.864784,157.242737 92.350037,157.487534 
	C91.634964,156.394684 90.324837,155.315109 90.300117,154.206863 
	C90.122162,146.228210 90.204819,138.243729 90.204819,130.172882 
	C93.191338,128.608093 94.930038,129.100830 95.623985,132.507614 
	C96.119659,134.941055 96.947365,137.306839 97.730286,140.096588 
z"/>
<path fill="#F2BF31" opacity="1.000000" stroke="none" 
	d="
M132.874268,67.624123 
	C137.799805,62.368080 142.723175,61.425846 147.202942,64.597610 
	C151.338089,67.525368 152.536484,73.053871 149.991638,77.462494 
	C147.146622,82.391144 140.168716,84.650734 136.365097,80.663673 
	C132.191513,76.288811 127.648575,76.873756 122.808151,76.779297 
	C122.009529,76.763718 121.213127,76.634583 120.210823,76.538231 
	C120.210823,73.867760 120.210823,71.435127 120.210823,68.872360 
	C124.412170,68.562714 128.513123,68.260475 132.874268,67.624123 
M143.816544,76.631142 
	C147.761200,72.938774 147.084381,70.313530 141.583694,67.496658 
	C137.887863,68.486572 135.895370,70.982475 137.393951,74.383263 
	C138.027100,75.820114 141.091507,76.185623 143.816544,76.631142 
z"/>
<path fill="#F3C032" opacity="1.000000" stroke="none" 
	d="
M55.970108,63.449829 
	C60.778244,62.117901 64.356728,63.278446 67.554893,66.726364 
	C68.662727,67.920715 70.987976,68.185097 72.818939,68.454720 
	C74.741653,68.737854 76.738426,68.518089 78.861542,68.518089 
	C78.861542,71.359108 78.861542,73.667900 78.861542,76.484200 
	C77.416710,76.586365 75.993736,76.829353 74.586670,76.758133 
	C71.204071,76.586937 68.472488,76.974197 65.819298,79.898811 
	C61.953865,84.159691 55.955055,83.147903 52.658447,78.974289 
	C55.544186,77.402008 58.557411,75.760262 61.312923,74.258934 
	C59.531460,68.017677 55.535908,67.909828 50.933941,67.299522 
	C52.495056,66.081100 54.056175,64.862671 55.970108,63.449829 
z"/>
<path fill="#E5E5E5" opacity="1.000000" stroke="none" 
	d="
M121.811508,157.058624 
	C114.315712,156.976013 113.820511,156.456741 114.567329,148.117813 
	C116.271523,149.641632 117.342537,150.575775 118.385941,151.539795 
	C119.202515,152.294235 119.984863,153.085724 120.782425,153.860764 
	C121.460442,152.960510 122.565193,152.129730 122.725525,151.145157 
	C123.036499,149.235611 122.816475,147.239594 122.816475,145.040390 
	C121.106148,144.894516 119.822739,144.726395 118.535385,144.686981 
	C115.459557,144.592834 113.988770,143.032059 114.043617,139.973755 
	C114.064484,138.809921 114.040543,137.645325 114.043900,136.481110 
	C114.062126,130.154114 118.247520,127.163994 124.040909,130.029327 
	C125.593163,130.797058 125.815437,134.292847 126.519844,136.575882 
	C126.544846,136.656906 125.060577,137.555725 124.518425,137.371368 
	C123.825935,137.135910 123.401894,136.161530 122.816483,135.549286 
	C121.806770,134.493286 120.761833,133.470993 119.731674,132.434570 
	C119.343475,132.744446 118.955284,133.054321 118.567085,133.364197 
	C118.567085,135.764877 118.567085,138.165543 118.567085,140.902893 
	C123.184761,141.068939 128.004532,141.307816 126.858513,148.070740 
	C126.269989,151.543793 128.933884,156.706329 121.811508,157.058624 
z"/>
<path fill="#E9E9E9" opacity="1.000000" stroke="none" 
	d="
M78.133301,140.560684 
	C79.987907,141.450562 81.805870,141.904312 83.623833,142.358063 
	C83.835457,142.725937 84.047073,143.093811 84.258698,143.461685 
	C82.481499,144.199692 80.704300,144.937698 78.288986,145.940704 
	C78.288986,148.876160 78.288986,152.610992 78.288986,156.345825 
	C77.896301,156.700256 77.503616,157.054688 77.110924,157.409119 
	C76.051628,156.495789 74.100456,155.608612 74.072800,154.665024 
	C73.831001,146.417099 73.933022,138.159103 73.933022,129.403961 
	C77.499138,129.403961 80.622093,129.278809 83.721886,129.491318 
	C84.503838,129.544907 85.211777,130.678070 85.953735,131.315125 
	C85.107460,131.840347 84.310448,132.678970 83.403999,132.821487 
	C81.821411,133.070282 80.171501,132.890778 78.096657,132.890778 
	C78.096657,135.562805 78.096657,137.843689 78.133301,140.560684 
z"/>
<path fill="#E5B62F" opacity="1.000000" stroke="none" 
	d="
M88.364380,45.230049 
	C99.803337,40.766331 113.347145,42.912079 119.129684,50.830723 
	C98.876511,39.997089 83.799683,44.455166 73.228531,64.059776 
	C74.701065,54.803566 80.517921,49.417953 88.364380,45.230049 
z"/>
<path fill="#E0E0E0" opacity="1.000000" stroke="none" 
	d="
M110.999245,82.854782 
	C111.672066,85.579468 114.517403,86.371498 117.150047,84.293228 
	C118.514923,83.215767 119.497459,81.653984 120.690414,80.267197 
	C123.631073,85.972336 121.618919,89.660797 115.587418,89.796989 
	C112.443489,89.867973 109.237289,90.173103 106.172050,89.676292 
	C104.156265,89.349564 102.341850,87.780418 99.923401,86.494385 
	C103.415154,85.159157 105.607872,84.320679 107.394928,83.158844 
	C106.989273,82.835495 107.037392,82.907051 107.223984,83.400452 
	C108.621727,83.572296 109.832886,83.250748 111.044044,82.929199 
	C111.044044,82.929199 110.971054,82.886345 110.999245,82.854782 
z"/>
<path fill="#D7AA2C" opacity="1.000000" stroke="none" 
	d="
M104.979500,102.094620 
	C91.907143,103.656013 81.765671,99.009041 74.861183,87.718475 
	C73.947472,86.224335 73.575745,84.398750 73.594360,82.184525 
	C80.470146,94.195045 89.901993,101.229546 104.553574,100.298050 
	C104.993469,101.095436 104.986481,101.595024 104.979500,102.094620 
z"/>
<path fill="#D9AC2C" opacity="1.000000" stroke="none" 
	d="
M105.333176,102.175735 
	C104.986481,101.595024 104.993469,101.095436 105.001297,100.345947 
	C116.187141,97.894958 123.694771,91.167343 128.155228,79.227386 
	C129.780334,89.350983 117.863228,100.455101 105.333176,102.175735 
z"/>
<path fill="#E1B22E" opacity="1.000000" stroke="none" 
	d="
M122.760818,51.923615 
	C125.894547,55.661888 128.877655,59.073944 128.256470,64.274742 
	C125.166855,59.700329 122.077240,55.125916 118.987625,50.551498 
	C119.170883,50.255302 119.354134,49.959106 119.537392,49.662910 
	C120.513420,50.330322 121.489449,50.997738 122.760818,51.923615 
z"/>
<path fill="#E2E2E2" opacity="1.000000" stroke="none" 
	d="
M63.958092,47.314796 
	C64.661041,47.320927 65.146019,47.589077 65.888321,47.960369 
	C64.462151,50.900314 62.778660,53.737114 61.095173,56.573917 
	C60.504356,56.294689 59.913536,56.015461 59.322720,55.736233 
	C60.795189,53.016426 62.267658,50.296619 63.958092,47.314796 
z"/>
<path fill="#020201" opacity="1.000000" stroke="none" 
	d="
M111.167221,82.523865 
	C109.832886,83.250748 108.621727,83.572296 107.182846,83.413361 
	C107.475410,77.976700 107.995697,73.020508 108.515984,68.064323 
	C108.774338,68.030716 109.032692,67.997108 109.291046,67.963501 
	C109.957497,72.681839 110.623947,77.400185 111.167221,82.523865 
z"/>
<path fill="#0E0B03" opacity="1.000000" stroke="none" 
	d="
M143.433685,76.834625 
	C141.091507,76.185623 138.027100,75.820114 137.393951,74.383263 
	C135.895370,70.982475 137.887863,68.486572 141.583694,67.496658 
	C147.084381,70.313530 147.761200,72.938774 143.433685,76.834625 
z"/>
</svg>