<?xml version="1.0" encoding="UTF-8"?>
<svg version="1.1" xmlns="http://www.w3.org/2000/svg" width="200" height="200">
<path d="M0 0 C66 0 132 0 200 0 C200 66 200 132 200 200 C134 200 68 200 0 200 C0 134 0 68 0 0 Z " fill="#010101" transform="translate(0,0)"/>
<path d="M0 0 C0.85207031 0.09023438 1.70414063 0.18046875 2.58203125 0.2734375 C5.14673909 0.61950003 7.65286339 1.10658169 10.1875 1.625 C10.24537784 5.24993334 10.2810542 8.87474857 10.3125 12.5 C10.32925781 13.53253906 10.34601563 14.56507812 10.36328125 15.62890625 C10.37294922 17.10810547 10.37294922 17.10810547 10.3828125 18.6171875 C10.39852295 19.98399658 10.39852295 19.98399658 10.41455078 21.37841797 C10.1875 23.625 10.1875 23.625 8.1875 25.625 C3.63194444 25.06944444 3.63194444 25.06944444 2.1875 23.625 C2.11491054 21.43860547 2.10376217 19.24999611 2.125 17.0625 C2.13402344 15.86496094 2.14304687 14.66742188 2.15234375 13.43359375 C2.16394531 12.50675781 2.17554687 11.57992187 2.1875 10.625 C1.5275 10.625 0.8675 10.625 0.1875 10.625 C0.21070312 11.54023437 0.23390625 12.45546875 0.2578125 13.3984375 C0.28488281 15.18121094 0.28488281 15.18121094 0.3125 17 C0.33570312 18.18335937 0.35890625 19.36671875 0.3828125 20.5859375 C0.1875 23.625 0.1875 23.625 -1.8125 25.625 C-3.4625 25.295 -5.1125 24.965 -6.8125 24.625 C-6.8125 20.005 -6.8125 15.385 -6.8125 10.625 C-7.8025 10.625 -8.7925 10.625 -9.8125 10.625 C-9.80089844 11.62402344 -9.78929688 12.62304688 -9.77734375 13.65234375 C-9.76832031 14.94269531 -9.75929688 16.23304687 -9.75 17.5625 C-9.73839844 18.85027344 -9.72679688 20.13804688 -9.71484375 21.46484375 C-9.8125 24.625 -9.8125 24.625 -10.8125 25.625 C-12.47867115 25.66563832 -14.14638095 25.667721 -15.8125 25.625 C-17.25457941 22.74084117 -16.90644887 20.20778472 -16.875 17 C-16.86597656 15.81148437 -16.85695313 14.62296875 -16.84765625 13.3984375 C-16.83605469 12.48320313 -16.82445313 11.56796875 -16.8125 10.625 C-17.4725 10.625 -18.1325 10.625 -18.8125 10.625 C-18.80089844 11.39585938 -18.78929688 12.16671875 -18.77734375 12.9609375 C-18.76380859 14.46527344 -18.76380859 14.46527344 -18.75 16 C-18.73839844 16.99773437 -18.72679688 17.99546875 -18.71484375 19.0234375 C-18.8125 21.625 -18.8125 21.625 -19.8125 23.625 C-21.81204746 23.66754356 -23.81291636 23.66580783 -25.8125 23.625 C-27.96982833 21.46767167 -26.99770919 16.67701247 -27 13.6875 C-27.01224609 12.85025391 -27.02449219 12.01300781 -27.03710938 11.15039062 C-27.03904297 10.34923828 -27.04097656 9.54808594 -27.04296875 8.72265625 C-27.04707764 7.98539307 -27.05118652 7.24812988 -27.05541992 6.48852539 C-26.8125 4.625 -26.8125 4.625 -24.8125 2.625 C-22.14583333 2.625 -19.47916667 2.625 -16.8125 2.625 C-16.1525 1.965 -15.4925 1.305 -14.8125 0.625 C-12.9375 0.46484375 -12.9375 0.46484375 -10.8125 0.5625 C-6.87719974 0.72888218 -3.99716394 -0.44346347 0 0 Z " fill="#F3F3F3" transform="translate(106.8125,56.375)"/>
<path d="M0 0 C4.03761333 0.5768019 5.64650217 1.64650217 8.5 4.5 C10.05024464 7.60048928 9.78992015 10.07894218 9.5 13.5 C7.70437595 16.25329021 6.44745078 18.02627461 3.5 19.5 C-2.24659864 19.96343537 -2.24659864 19.96343537 -4.5 19.5 C-5.10585937 18.84902344 -5.71171875 18.19804688 -6.3359375 17.52734375 C-9.26475348 14.78356127 -11.29689008 14.9081244 -15.25 14.75 C-17.00570312 14.66492188 -17.00570312 14.66492188 -18.796875 14.578125 C-19.68890625 14.55234375 -20.5809375 14.5265625 -21.5 14.5 C-21.5 11.53 -21.5 8.56 -21.5 5.5 C-20.61957031 5.47421875 -19.73914063 5.4484375 -18.83203125 5.421875 C-17.08986328 5.33679688 -17.08986328 5.33679688 -15.3125 5.25 C-14.16394531 5.20359375 -13.01539062 5.1571875 -11.83203125 5.109375 C-6.9516535 4.21683229 -4.87229585 0.69604226 0 0 Z " fill="#F0BE31" transform="translate(140.5,61.5)"/>
<path d="M0 0 C4.29 0 8.58 0 13 0 C13 2.97 13 5.94 13 9 C14.98 9.33 16.96 9.66 19 10 C19.309375 9.21625 19.61875 8.4325 19.9375 7.625 C21 5 21 5 22 3 C26.19360449 3.67097672 29.40334352 5.8558394 33 8 C32.835 8.9075 32.67 9.815 32.5 10.75 C31.89862854 14.11087503 31.89862854 14.11087503 32 18 C32.99 18.66 33.98 19.32 35 20 C36.1446875 19.2265625 36.1446875 19.2265625 37.3125 18.4375 C38.199375 17.963125 39.08625 17.48875 40 17 C43.6607519 18.22025063 43.92339441 19.126491 45.6875 22.4375 C46.12449219 23.24058594 46.56148438 24.04367188 47.01171875 24.87109375 C48 27 48 27 48 29 C47.01 29 46.02 29 45 29 C43.68 26.69 42.36 24.38 41 22 C40.2575 22.165 39.515 22.33 38.75 22.5 C36 23 36 23 32 23 C29.25 20.5 29.25 20.5 27 18 C28.875 12.25 28.875 12.25 30 10 C27.69 8.68 25.38 7.36 23 6 C22.773125 6.804375 22.54625 7.60875 22.3125 8.4375 C21 11 21 11 18.75 11.9375 C15.45787597 12.012321 13.04477316 11.20374753 10 10 C10 7.36 10 4.72 10 2 C7.36 2 4.72 2 2 2 C2 4.64 2 7.28 2 10 C-2.02150141 11.58989591 -4.85929551 12.61027397 -9 11 C-10.3125 8.9375 -10.3125 8.9375 -11 7 C-12.98 7.66 -14.96 8.32 -17 9 C-16.855625 9.556875 -16.71125 10.11375 -16.5625 10.6875 C-15.97230872 13.11384195 -15.476571 15.54906345 -15 18 C-18.80540541 21.54594595 -18.80540541 21.54594595 -21 23 C-23.125 22.875 -23.125 22.875 -25 22 C-25.7425 21.814375 -26.485 21.62875 -27.25 21.4375 C-28.11625 21.2209375 -28.11625 21.2209375 -29 21 C-30.32 23.31 -31.64 25.62 -33 28 C-33.66 28 -34.32 28 -35 28 C-34.46884894 23.48521602 -32.63379708 20.65333143 -30 17 C-29.1646875 17.2165625 -29.1646875 17.2165625 -28.3125 17.4375 C-25.88615805 18.02769128 -23.45093655 18.523429 -21 19 C-20.34 17.68 -19.68 16.36 -19 15 C-19.66 14.01 -20.32 13.02 -21 12 C-21 10.68 -21 9.36 -21 8 C-19.390625 6.48046875 -19.390625 6.48046875 -17.25 5.1875 C-16.55390625 4.74792969 -15.8578125 4.30835938 -15.140625 3.85546875 C-13 3 -13 3 -10.8125 3.171875 C-9 4 -9 4 -7.75 7.0625 C-7.5025 8.031875 -7.255 9.00125 -7 10 C-5.02 9.34 -3.04 8.68 -1 8 C-0.67 5.36 -0.34 2.72 0 0 Z " fill="#DBDBDB" transform="translate(94,27)"/>
<path d="M0 0 C0.99 0.495 0.99 0.495 2 1 C0.18690997 4.77727089 -1.9073259 8.37269822 -4 12 C-4.928125 11.67 -5.85625 11.34 -6.8125 11 C-9.92029291 9.85032996 -9.92029291 9.85032996 -13 10 C-13.66 11.32 -14.32 12.64 -15 14 C-14.01 15.485 -14.01 15.485 -13 17 C-13 18.32 -13 19.64 -13 21 C-14.64453125 22.484375 -14.64453125 22.484375 -16.8125 23.75 C-17.52019531 24.17796875 -18.22789063 24.6059375 -18.95703125 25.046875 C-21 26 -21 26 -24 26 C-24.680625 24.7625 -24.680625 24.7625 -25.375 23.5 C-25.91125 22.675 -26.4475 21.85 -27 21 C-29.62694422 20.58219121 -29.62694422 20.58219121 -32 21 C-32.33 23.64 -32.66 26.28 -33 29 C-37.29 29 -41.58 29 -46 29 C-46 26.36 -46 23.72 -46 21 C-49.37400578 20.58274322 -49.37400578 20.58274322 -53 21 C-55.00864359 23.3726974 -55.00864359 23.3726974 -56 26 C-60.51478398 25.46884894 -63.34666857 23.63379708 -67 21 C-66.52558085 18.56013011 -66.05833639 16.1856158 -65.3125 13.8125 C-65.209375 13.214375 -65.10625 12.61625 -65 12 C-65.66 11.34 -66.32 10.68 -67 10 C-68.89667109 10.28552357 -68.89667109 10.28552357 -71 11 C-72.66519519 11.34060811 -74.33157466 11.67558396 -76 12 C-76.84158536 10.73461631 -77.67299748 9.46246221 -78.5 8.1875 C-79.19609375 7.12595703 -79.19609375 7.12595703 -79.90625 6.04296875 C-81 4 -81 4 -81 1 C-80.34 1 -79.68 1 -79 1 C-77.68 3.31 -76.36 5.62 -75 8 C-73.205625 7.319375 -73.205625 7.319375 -71.375 6.625 C-69.1796875 6.046875 -69.1796875 6.046875 -67 6 C-64.49495034 7.61413241 -62.77274364 9.62291194 -61 12 C-61.33 12.763125 -61.66 13.52625 -62 14.3125 C-63.17436686 16.99069135 -63.17436686 16.99069135 -63 20 C-61.02 20.66 -59.04 21.32 -57 22 C-56.01 20.35 -55.02 18.7 -54 17 C-50.7 17.66 -47.4 18.32 -44 19 C-44 21.64 -44 24.28 -44 27 C-41.36 27 -38.72 27 -36 27 C-36 24.36 -36 21.72 -36 19 C-32.00560824 17.42082186 -29.09224656 16.29489727 -25 18 C-23.6875 20.5625 -23.6875 20.5625 -23 23 C-21.02 22.01 -19.04 21.02 -17 20 C-17.52268466 17.23723823 -18.10869587 14.6739124 -19 12 C-17.14457088 9.80026445 -15.28608224 7.75769531 -13 6 C-10.3125 6.0625 -10.3125 6.0625 -8 7 C-7.01 7.33 -6.02 7.66 -5 8 C-3.35 5.36 -1.7 2.72 0 0 Z " fill="#DEDEDE" transform="translate(140,87)"/>
<path d="M0 0 C1.65 0 3.3 0 5 0 C6.32 4.62 7.64 9.24 9 14 C9.45375 12.618125 9.9075 11.23625 10.375 9.8125 C11.47975443 6.49300091 12.64632091 3.22800399 14 0 C15.65 0 17.3 0 19 0 C19 9.24 19 18.48 19 28 C17.68 28 16.36 28 15 28 C14.67 23.05 14.34 18.1 14 13 C13.01 15.97 12.02 18.94 11 22 C9.68 22 8.36 22 7 22 C6.34 19.36 5.68 16.72 5 14 C4.67 18.62 4.34 23.24 4 28 C2.68 28 1.36 28 0 28 C0 18.76 0 9.52 0 0 Z " fill="#D3D3D3" transform="translate(89,128)"/>
<path d="M0 0 C3.5 0.5625 3.5 0.5625 5.75 2.5 C9.93463451 5.63847588 14.39233445 5.38359753 19.5 5.5625 C19.5 8.5325 19.5 11.5025 19.5 14.5625 C18.76394531 14.58828125 18.02789062 14.6140625 17.26953125 14.640625 C11.14118812 14.99682988 8.25996478 15.5744214 3.5 19.5625 C-0.77236518 20.28447026 -3.82711211 20.01109192 -7.5 17.5625 C-7.5 16.9025 -7.5 16.2425 -7.5 15.5625 C-6.55125 15.500625 -5.6025 15.43875 -4.625 15.375 C-1.33426176 14.89969189 -1.33426176 14.89969189 0 12.1875 C0.85948488 9.34275473 0.85948488 9.34275473 -1.5 6.5625 C-5.06769552 5.82643501 -5.06769552 5.82643501 -8.5 5.5625 C-5.75194049 2.23151878 -4.33784855 0.69715423 0 0 Z " fill="#E3B42E" transform="translate(58.5,61.4375)"/>
<path d="M0 0 C1.50046875 0.00386719 1.50046875 0.00386719 3.03125 0.0078125 C4.0315625 0.00523437 5.031875 0.00265625 6.0625 0 C8.53125 0.1328125 8.53125 0.1328125 9.53125 1.1328125 C9.57217937 3.46578683 9.57366723 5.79986475 9.53125 8.1328125 C8.21125 8.1328125 6.89125 8.1328125 5.53125 8.1328125 C5.53125 6.4828125 5.53125 4.8328125 5.53125 3.1328125 C3.88125 3.1328125 2.23125 3.1328125 0.53125 3.1328125 C0.53125 5.7728125 0.53125 8.4128125 0.53125 11.1328125 C1.459375 11.0915625 2.3875 11.0503125 3.34375 11.0078125 C6.53125 11.1328125 6.53125 11.1328125 9.53125 13.1328125 C9.89453125 15.8828125 9.89453125 15.8828125 9.84375 19.1328125 C9.83988281 20.2053125 9.83601563 21.2778125 9.83203125 22.3828125 C9.53125 25.1328125 9.53125 25.1328125 7.53125 27.1328125 C5.4375 27.3984375 5.4375 27.3984375 3.03125 27.3828125 C2.2371875 27.38796875 1.443125 27.393125 0.625 27.3984375 C-1.46875 27.1328125 -1.46875 27.1328125 -3.46875 25.1328125 C-3.59375 22.0078125 -3.59375 22.0078125 -3.46875 19.1328125 C-2.14875 19.1328125 -0.82875 19.1328125 0.53125 19.1328125 C0.53125 20.7828125 0.53125 22.4328125 0.53125 24.1328125 C2.18125 24.1328125 3.83125 24.1328125 5.53125 24.1328125 C5.53125 21.1628125 5.53125 18.1928125 5.53125 15.1328125 C3.860625 15.1946875 3.860625 15.1946875 2.15625 15.2578125 C-1.46875 15.1328125 -1.46875 15.1328125 -3.46875 13.1328125 C-3.69921875 10.34765625 -3.69921875 10.34765625 -3.65625 7.0703125 C-3.64980469 5.98621094 -3.64335938 4.90210938 -3.63671875 3.78515625 C-3.40862364 0.18337532 -3.40862364 0.18337532 0 0 Z " fill="#E3E3E3" transform="translate(116.46875,128.8671875)"/>
<path d="M0 0 C0.33 0 0.66 0 1 0 C1 2.97 1 5.94 1 9 C3.97 9.495 3.97 9.495 7 10 C7.309375 9.21625 7.61875 8.4325 7.9375 7.625 C9 5 9 5 10 3 C14.19360449 3.67097672 17.40334352 5.8558394 21 8 C20.835 8.9075 20.67 9.815 20.5 10.75 C19.89862854 14.11087503 19.89862854 14.11087503 20 18 C20.99 18.66 21.98 19.32 23 20 C23.763125 19.484375 24.52625 18.96875 25.3125 18.4375 C26.199375 17.963125 27.08625 17.48875 28 17 C31.6607519 18.22025063 31.92339441 19.126491 33.6875 22.4375 C34.12449219 23.24058594 34.56148437 24.04367188 35.01171875 24.87109375 C36 27 36 27 36 29 C35.01 29 34.02 29 33 29 C31.68 26.69 30.36 24.38 29 22 C27.88625 22.2475 27.88625 22.2475 26.75 22.5 C24 23 24 23 20 23 C17.25 20.5 17.25 20.5 15 18 C16.875 12.25 16.875 12.25 18 10 C15.69 8.68 13.38 7.36 11 6 C10.773125 6.804375 10.54625 7.60875 10.3125 8.4375 C9 11 9 11 6.75 11.9375 C3.45787597 12.012321 1.04477316 11.20374753 -2 10 C-2.1953125 3.9453125 -2.1953125 3.9453125 -2 2 C-1.34 1.34 -0.68 0.68 0 0 Z " fill="#DBDBDB" transform="translate(106,27)"/>
<path d="M0 0 C0.66 0 1.32 0 2 0 C1.70049552 5.99008964 -0.87666947 9.85192948 -5 14 C-14.5799278 20.88743256 -23.45733609 22.07426773 -35 21 C-38.1567268 20.15575911 -40.41532817 18.97081227 -43 17 C-44.051875 16.2575 -45.10375 15.515 -46.1875 14.75 C-49.47440505 11.53613728 -52.03015916 8.16630053 -54 4 C-54 3.01 -54 2.02 -54 1 C-50.25372082 2.24875973 -50.01488967 3.76573942 -48.2265625 7.08984375 C-44.87739705 12.3055823 -39.61841853 15.6329181 -34 18 C-24.83263903 19.2223148 -16.54725652 18.62510879 -9 13 C-4.89379852 9.24326247 -2.24119797 5.10495094 0 0 Z " fill="#DCAE2D" transform="translate(126,80)"/>
<path d="M0 0 C5.99914764 3.56515003 11.48746623 8.51683827 14.4375 14.9375 C14.4375 16.2575 14.4375 17.5775 14.4375 18.9375 C13.7775 18.9375 13.1175 18.9375 12.4375 18.9375 C12.06625 18.091875 11.695 17.24625 11.3125 16.375 C7.11219985 8.67444972 1.99702461 3.54907538 -6.5625 0.9375 C-15.49392716 -0.32232287 -23.21309055 0.48767054 -30.5625 5.9375 C-34.60729688 9.67347626 -38.04331391 13.53594945 -39.5625 18.9375 C-40.2225 18.9375 -40.8825 18.9375 -41.5625 18.9375 C-40.89880596 11.59404659 -36.75624546 7.82129613 -31.5625 2.9375 C-22.92896943 -3.37288589 -9.7681063 -4.59764263 0 0 Z " fill="#DFB12D" transform="translate(113.5625,44.0625)"/>
<path d="M0 0 C0.66 0.33 1.32 0.66 2 1 C0.18690997 4.77727089 -1.9073259 8.37269822 -4 12 C-4.928125 11.67 -5.85625 11.34 -6.8125 11 C-9.92029291 9.85032996 -9.92029291 9.85032996 -13 10 C-13.66 11.32 -14.32 12.64 -15 14 C-14.01 15.485 -14.01 15.485 -13 17 C-13 18.32 -13 19.64 -13 21 C-14.64453125 22.484375 -14.64453125 22.484375 -16.8125 23.75 C-17.52019531 24.17796875 -18.22789063 24.6059375 -18.95703125 25.046875 C-21 26 -21 26 -24 26 C-24.45375 25.175 -24.9075 24.35 -25.375 23.5 C-25.91125 22.675 -26.4475 21.85 -27 21 C-29.62694422 20.58219121 -29.62694422 20.58219121 -32 21 C-32.33 23.64 -32.66 26.28 -33 29 C-33.99 28.34 -34.98 27.68 -36 27 C-36.40843923 24.28796348 -36.13336867 21.7562858 -36 19 C-32.00560824 17.42082186 -29.09224656 16.29489727 -25 18 C-23.6875 20.5625 -23.6875 20.5625 -23 23 C-21.02 22.01 -19.04 21.02 -17 20 C-17.52268466 17.23723823 -18.10869587 14.6739124 -19 12 C-17.14457088 9.80026445 -15.28608224 7.75769531 -13 6 C-10.3125 6.0625 -10.3125 6.0625 -8 7 C-7.01 7.33 -6.02 7.66 -5 8 C-3.35 5.36 -1.7 2.72 0 0 Z " fill="#DADADA" transform="translate(140,87)"/>
<path d="M0 0 C3.96 0 7.92 0 12 0 C12 0.99 12 1.98 12 3 C9.36 3 6.72 3 4 3 C4 5.97 4 8.94 4 12 C5.98 12 7.96 12 10 12 C10 12.99 10 13.98 10 15 C8.02 15 6.04 15 4 15 C4 18.96 4 22.92 4 27 C2.68 27 1.36 27 0 27 C0 18.09 0 9.18 0 0 Z " fill="#F0F0F0" transform="translate(73,129)"/>
<path d="M0 0 C0.66 0 1.32 0 2 0 C2.36263097 6.4064804 2.36263097 6.4064804 0.95703125 8.70703125 C-2.02705282 10.67855186 -5.04677305 10.43419818 -8.5 10.375 C-9.17675781 10.38660156 -9.85351562 10.39820312 -10.55078125 10.41015625 C-13.50950159 10.39264903 -15.51768269 10.34259841 -17.96875 8.6015625 C-19 7 -19 7 -19 5 C-9.64593301 3.96476729 -9.64593301 3.96476729 -5.5625 4.1875 C-2.84024641 4.28994966 -2.84024641 4.28994966 -1.25 2 C-0.8375 1.34 -0.425 0.68 0 0 Z " fill="#E0E0E0" transform="translate(119,79)"/>
<path d="M0 0 C3.74627918 1.24875973 3.98511033 2.76573942 5.7734375 6.08984375 C9.01919287 11.14453921 14.42885977 14.96439107 20 17 C23.66032841 17.51711011 27.30925036 17.80955206 31 18 C31 18.33 31 18.66 31 19 C20.90359175 20.54811593 15.99732244 19.52752172 7.8125 13.75 C4.52559495 10.53613728 1.96984084 7.16630053 0 3 C0 2.01 0 1.02 0 0 Z " fill="#DBAD2C" transform="translate(72,81)"/>
<path d="M0 0 C1.32 0 2.64 0 4 0 C4 8.58 4 17.16 4 26 C3.34 26 2.68 26 2 26 C2 20.06 2 14.12 2 8 C0.68 8.33 -0.64 8.66 -2 9 C-1.125 1.125 -1.125 1.125 0 0 Z " fill="#F6F6F6" transform="translate(103,129)"/>
<path d="M0 0 C3.96 0 7.92 0 12 0 C11.67 1.98 11.34 3.96 11 6 C11.66 6.33 12.32 6.66 13 7 C8.71 7 4.42 7 0 7 C0 4.69 0 2.38 0 0 Z " fill="#FBC633" transform="translate(119,68)"/>
<path d="M0 0 C3.96 0 7.92 0 12 0 C11.67 0.99 11.34 1.98 11 3 C8.03 2.67 5.06 2.34 2 2 C2 4.64 2 7.28 2 10 C-0.9757374 11.17645432 -3.47544733 11.9878011 -6.6875 12.0625 C-9 11 -9 11 -10.8125 7.4375 C-11.204375 6.303125 -11.59625 5.16875 -12 4 C-11.01 4 -10.02 4 -9 4 C-8.34 5.98 -7.68 7.96 -7 10 C-5.02 9.34 -3.04 8.68 -1 8 C-0.67 5.36 -0.34 2.72 0 0 Z " fill="#F1F1F1" transform="translate(94,27)"/>
<path d="M0 0 C2.5 1.125 2.5 1.125 5 3 C5.3125 6.1875 5.3125 6.1875 5 9 C2.75 10.125 2.75 10.125 0 11 C-2.3125 10.125 -2.3125 10.125 -4 9 C-4.25 6.1875 -4.25 6.1875 -4 3 C-2 1.125 -2 1.125 0 0 Z " fill="#0C0A02" transform="translate(140,66)"/>
<path d="M0 0 C0.66 0 1.32 0 2 0 C3.32 2.31 4.64 4.62 6 7 C7.794375 6.319375 7.794375 6.319375 9.625 5.625 C11.8203125 5.046875 11.8203125 5.046875 14 5 C16.50504966 6.61413241 18.22725636 8.62291194 20 11 C19.34 12.32 18.68 13.64 18 15 C17.71125 14.38125 17.4225 13.7625 17.125 13.125 C16.06279958 10.86674235 16.06279958 10.86674235 14 9 C12.10332891 9.28552357 12.10332891 9.28552357 10 10 C8.33480481 10.34060811 6.66842534 10.67558396 5 11 C4.15841464 9.73461631 3.32700252 8.46246221 2.5 7.1875 C1.80390625 6.12595703 1.80390625 6.12595703 1.09375 5.04296875 C0 3 0 3 0 0 Z " fill="#E5E5E5" transform="translate(59,88)"/>
<path d="M0 0 C0.66 0 1.32 0 2 0 C2.33 4.29 2.66 8.58 3 13 C4.65 13.33 6.3 13.66 8 14 C8.99 14.33 9.98 14.66 11 15 C9 17 9 17 7.1171875 17.16015625 C6.37726563 17.12792969 5.63734375 17.09570312 4.875 17.0625 C0.46892424 16.95538309 -3.64118955 17.36599121 -8 18 C-8 17.34 -8 16.68 -8 16 C-5.69 15.01 -3.38 14.02 -1 13 C-0.67 8.71 -0.34 4.42 0 0 Z " fill="#111111" transform="translate(107,67)"/>
<path d="M0 0 C3.3 0 6.6 0 10 0 C10 2.31 10 4.62 10 7 C6.7 7 3.4 7 0 7 C0.66 5.02 1.32 3.04 2 1 C1.34 0.67 0.68 0.34 0 0 Z " fill="#F9C533" transform="translate(68,68)"/>
<path d="M0 0 C1.32 0 2.64 0 4 0 C4 2.64 4 5.28 4 8 C6.97 8 9.94 8 13 8 C13 5.69 13 3.38 13 1 C13.33 1 13.66 1 14 1 C14 3.97 14 6.94 14 10 C10.04 10 6.08 10 2 10 C1.77213542 7.98177083 1.54427083 5.96354167 1.31640625 3.9453125 C1.08707039 1.92595684 1.08707039 1.92595684 0 0 Z " fill="#FEFEFE" transform="translate(92,106)"/>
<path d="M0 0 C0 0.99 0 1.98 0 3 C-2.31 3 -4.62 3 -7 3 C-7.33 5.64 -7.66 8.28 -8 11 C-8.99 10.34 -9.98 9.68 -11 9 C-11.40843923 6.28796348 -11.13336867 3.7562858 -11 1 C-6.87831311 -0.62950412 -4.29299643 -1.26264601 0 0 Z " fill="#CACACA" transform="translate(115,105)"/>
<path d="M0 0 C0.66 0 1.32 0 2 0 C2 1.32 2 2.64 2 4 C0.35546875 5.484375 0.35546875 5.484375 -1.8125 6.75 C-2.87404297 7.39195313 -2.87404297 7.39195313 -3.95703125 8.046875 C-6 9 -6 9 -9 9 C-9.66 7.02 -10.32 5.04 -11 3 C-10.01 3.33 -9.02 3.66 -8 4 C-8 4.66 -8 5.32 -8 6 C-7.05125 5.505 -6.1025 5.01 -5.125 4.5 C-2 3 -2 3 0 3 C0 2.01 0 1.02 0 0 Z " fill="#E7E7E7" transform="translate(125,104)"/>
<path d="M0 0 C2.62506802 -0.02690844 5.24986173 -0.04679404 7.875 -0.0625 C8.62136719 -0.07087891 9.36773437 -0.07925781 10.13671875 -0.08789062 C15.7734375 -0.11328125 15.7734375 -0.11328125 18 1 C18 1.66 18 2.32 18 3 C11.73 2.67 5.46 2.34 -1 2 C-0.67 1.34 -0.34 0.68 0 0 Z " fill="#E8B72F" transform="translate(92,42)"/>
<path d="M0 0 C3.72289362 1.24096454 4.22811428 2.86966747 6.015625 6.2109375 C7.16273989 8.29577329 8.51493058 10.14366323 10 12 C9.01 12.33 8.02 12.66 7 13 C0.29612756 4.738041 0.29612756 4.738041 0 0 Z " fill="#D0A42A" transform="translate(72,81)"/>
<path d="M0 0 C-7.02436254 4.40744316 -12.82632933 4.4485551 -21 4 C-21 3.67 -21 3.34 -21 3 C-19.78763672 2.81824219 -19.78763672 2.81824219 -18.55078125 2.6328125 C-17.48214844 2.46523437 -16.41351563 2.29765625 -15.3125 2.125 C-14.25675781 1.96257812 -13.20101562 1.80015625 -12.11328125 1.6328125 C-9.01683359 1.11298049 -9.01683359 1.11298049 -6.35546875 -0.1328125 C-3.72003099 -1.10307317 -2.58992411 -0.95923115 0 0 Z " fill="#EBBA30" transform="translate(116,97)"/>
<path d="M0 0 C0.33 0 0.66 0 1 0 C1 2.97 1 5.94 1 9 C2.32 9 3.64 9 5 9 C4.67 9.99 4.34 10.98 4 12 C2.02 11.34 0.04 10.68 -2 10 C-2.1953125 3.9453125 -2.1953125 3.9453125 -2 2 C-1.34 1.34 -0.68 0.68 0 0 Z " fill="#CECECE" transform="translate(106,27)"/>
<path d="M0 0 C0.66 0 1.32 0 2 0 C2.5775 1.093125 3.155 2.18625 3.75 3.3125 C5.44144447 6.29669132 7.01791458 8.18944814 10 10 C8.35 10.33 6.7 10.66 5 11 C4.15841464 9.73461631 3.32700252 8.46246221 2.5 7.1875 C1.80390625 6.12595703 1.80390625 6.12595703 1.09375 5.04296875 C0 3 0 3 0 0 Z " fill="#DBDBDB" transform="translate(59,88)"/>
<path d="M0 0 C0.66 0.33 1.32 0.66 2 1 C1.34 1.556875 0.68 2.11375 0 2.6875 C-2.25492211 4.84062308 -2.25492211 4.84062308 -2.25 7.75 C-2.12625 8.86375 -2.12625 8.86375 -2 10 C-2.99 10 -3.98 10 -5 10 C-5 8.68 -5 7.36 -5 6 C-8.63 5.67 -12.26 5.34 -16 5 C-16 4.67 -16 4.34 -16 4 C-14.64455078 3.94392578 -14.64455078 3.94392578 -13.26171875 3.88671875 C-12.08222656 3.82097656 -10.90273437 3.75523438 -9.6875 3.6875 C-8.51574219 3.62949219 -7.34398438 3.57148437 -6.13671875 3.51171875 C-2.9016314 2.98395232 -1.91315119 2.57619276 0 0 Z " fill="#886C1B" transform="translate(135,63)"/>
<path d="M0 0 C6 7.71428571 6 7.71428571 6 11 C5.01 11 4.02 11 3 11 C2.0234375 9.2421875 1.046875 7.484375 0.0703125 5.7265625 C-1.00897274 3.8387386 -1.00897274 3.8387386 -3 2 C-2.01 2 -1.02 2 0 2 C0 1.34 0 0.68 0 0 Z " fill="#C7C7C7" transform="translate(136,45)"/>
<path d="M0 0 C0.99 0.33 1.98 0.66 3 1 C3 1.99 3 2.98 3 4 C-2.23255814 9 -2.23255814 9 -6 9 C-6 8.34 -6 7.68 -6 7 C-5.01 7 -4.02 7 -3 7 C-1.79371992 4.66785852 -0.8345262 2.50357861 0 0 Z " fill="#E6E6E6" transform="translate(76,41)"/>
<path d="M0 0 C1.32 0.66 2.64 1.32 4 2 C1.03 3.32 -1.94 4.64 -5 6 C-5.66 5.34 -6.32 4.68 -7 4 C-1.921875 0.6796875 -1.921875 0.6796875 0 0 Z " fill="#D4A82B" transform="translate(89,43)"/>
<path d="M0 0 C0.6875 1.75 0.6875 1.75 1 4 C-0.25 6.25 -0.25 6.25 -2 8 C-2.99 8 -3.98 8 -5 8 C-5 7.34 -5 6.68 -5 6 C-4.34 6 -3.68 6 -3 6 C-2.690625 5.195625 -2.38125 4.39125 -2.0625 3.5625 C-1 1 -1 1 0 0 Z " fill="#E7E7E7" transform="translate(116,31)"/>
<path d="M0 0 C1.32 0 2.64 0 4 0 C4 2.64 4 5.28 4 8 C3.34 8 2.68 8 2 8 C1.34 5.36 0.68 2.72 0 0 Z " fill="#F3F3F3" transform="translate(92,106)"/>
<path d="M0 0 C0.66 0 1.32 0 2 0 C3.125 2.8125 3.125 2.8125 4 6 C3.01 7.485 3.01 7.485 2 9 C1.01 6.36 0.02 3.72 -1 1 C-0.67 0.67 -0.34 0.34 0 0 Z " fill="#D7D7D7" transform="translate(122,98)"/>
<path d="M0 0 C1.98 0.99 1.98 0.99 4 2 C4 3.32 4 4.64 4 6 C3.01 6.495 3.01 6.495 2 7 C1.34 4.69 0.68 2.38 0 0 Z " fill="#EDEDED" transform="translate(74,96)"/>
<path d="M0 0 C0 0.66 0 1.32 0 2 C-1.96147874 3.38938077 -3.96166576 4.7260411 -6 6 C-6 3 -6 3 -4.6875 1.3125 C-3 0 -3 0 0 0 Z " fill="#EDEDED" transform="translate(130,93)"/>
</svg>
